<?xml version="1.0" encoding="UTF-8"?>
<svg id="Layer_2" data-name="Layer 2" xmlns="http://www.w3.org/2000/svg" viewBox="0 0 411.2 102.54">
  <defs>
    <style>
      .cls-1 {
        fill: #00a651;
      }

      .cls-2 {
        fill: #231f20;
      }
    </style>
  </defs>
  <g id="Layer_1-2" data-name="Layer 1">
    <g>
      <path class="cls-2" d="M0,29.9h24.84s9.82,34.38,9.82,34.38l12.42-34.38h17.91s12.71,34.38,12.71,34.38l9.68-34.38h24.99s-25.56,71.21-25.56,71.21h-17.91s-12.86-34.09-12.86-34.09l-12.85,34.09h-17.77S0,29.9,0,29.9Z"/>
      <path class="cls-2" d="M155.26,0h23.11s0,101.1,0,101.1h-23.11s0-101.1,0-101.1Z"/>
      <path class="cls-2" d="M191.38,0h23.1s0,101.1,0,101.1h-23.1S191.38,0,191.38,0Z"/>
      <path class="cls-2" d="M280.2,33.29c5.68,3.23,10.14,7.68,13.36,13.36,3.22,5.68,4.84,11.99,4.84,18.92,0,6.93-1.62,13.21-4.84,18.85-3.23,5.63-7.68,10.06-13.36,13.29-5.68,3.23-11.99,4.84-18.92,4.84-6.93,0-13.19-1.61-18.77-4.84-5.59-3.22-9.99-7.65-13.22-13.29-3.23-5.63-4.84-11.92-4.84-18.85,0-6.93,1.61-13.24,4.84-18.92,3.22-5.68,7.63-10.13,13.22-13.36,5.58-3.22,11.84-4.84,18.77-4.84,6.93,0,13.24,1.61,18.92,4.84ZM253.99,52.72c-2.17,1.35-3.85,3.13-5.06,5.34-1.2,2.22-1.8,4.77-1.8,7.65,0,2.79.6,5.3,1.8,7.51,1.2,2.22,2.94,3.95,5.2,5.2,2.26,1.25,4.69,1.88,7.29,1.88,2.6,0,5.01-.63,7.22-1.88,2.21-1.25,3.95-2.98,5.2-5.2,1.25-2.21,1.88-4.72,1.88-7.51,0-2.98-.63-5.56-1.88-7.73-1.25-2.17-2.96-3.92-5.13-5.27-2.16-1.35-4.64-2.02-7.44-2.02-2.69,0-5.13.68-7.29,2.02Z"/>
      <path class="cls-2" d="M298.83,29.9h24.84s9.82,34.38,9.82,34.38l12.42-34.38h17.91s12.71,34.38,12.71,34.38l9.68-34.38h24.99s-25.57,71.21-25.57,71.21h-17.91s-12.85-34.09-12.85-34.09l-12.85,34.09h-17.77s-25.42-71.21-25.42-71.21Z"/>
      <g>
        <path class="cls-2" d="M142.26,41.72v59.39s-23.1,0-23.1,0v-59.39s23.1,0,23.1,0Z"/>
        <path class="cls-1" d="M120.89,23.47c-2.69-2.74-4.05-5.99-4.05-9.75,0-3.75,1.35-6.98,4.05-9.68C123.58,1.35,126.86,0,130.71,0c3.85,0,7.13,1.35,9.82,4.04,2.69,2.7,4.04,5.92,4.04,9.68,0,3.76-1.35,7.01-4.04,9.75-2.7,2.74-5.98,4.12-9.82,4.12-3.85,0-7.13-1.37-9.82-4.12Z"/>
      </g>
    </g>
  </g>
</svg>